<svg width="22" height="16" viewBox="0 0 22 16" fill="none" xmlns="http://www.w3.org/2000/svg">
<path d="M18.5192 7.12549L13.2675 1.87385C12.877 1.48333 12.877 0.850164 13.2675 0.459641C13.658 0.0691169 14.2912 0.069117 14.6817 0.459641L21.5404 7.31835C21.744 7.52191 21.8415 7.7914 21.8328 8.05809C21.8416 8.3249 21.7441 8.59454 21.5404 8.7982L14.6727 15.6659C14.2822 16.0565 13.649 16.0565 13.2585 15.6659C12.868 15.2754 12.868 14.6422 13.2585 14.2517L18.3847 9.12549L1.5 9.12549C0.947715 9.12549 0.5 8.67778 0.5 8.12549C0.5 7.57321 0.947716 7.12549 1.5 7.12549L18.5192 7.12549Z" fill="white"/>
</svg>