<svg  xmlns="http://www.w3.org/2000/svg" version="1.1" viewBox="0 0 218 328" style="    width: 135px;    margin: 0 auto;">
        <path fill="white" d="   M 7.75 0.21   L 15.25 0.21   Q 32.80 1.36 46.44 11.56   Q 53.65 16.96 59.85 24.88   Q 66.91 33.90 71.99 44.06   Q 73.12 46.31 80.01 62.38   Q 97.88 104.06 115.35 145.43   Q 115.90 146.74 116.42 145.42   Q 135.21 97.53 153.47 49.85   Q 155.16 45.45 155.58 39.69   A 1.29 1.28 -87.8 0 1 156.86 38.50   L 189.31 38.50   A 1.16 1.16 88.7 0 1 190.47 39.61   Q 191.03 51.27 192.51 62.20   Q 196.94 95.01 201.23 127.84   Q 205.36 159.47 210.35 191.63   A 0.49 0.48 85.8 0 1 209.88 192.19   L 181.88 192.25   A 0.64 0.64 88.1 0 1 181.24 191.65   Q 180.72 181.86 179.60 172.02   Q 173.92 122.25 167.99 72.39   Q 167.73 70.24 166.94 72.26   L 118.70 195.74   A 0.49 0.49 -62.6 0 1 117.98 195.97   Q 107.36 189.10 101.09 177.68   Q 98.05 172.14 95.59 166.32   Q 75.39 118.49 55.79 71.42   Q 55.05 69.64 54.81 71.55   Q 49.53 112.42 44.11 152.82   Q 41.72 170.67 40.08 188.60   Q 40.07 188.72 40.09 190.38   Q 40.11 192.55 37.81 192.37   Q 36.25 192.25 36.17 192.25   Q 26.93 192.25 17.06 192.25   A 0.58 0.58 -84.6 0 1 16.49 191.56   Q 20.55 169.84 23.54 148.01   Q 29.30 106.00 34.80 63.95   Q 34.81 63.90 35.95 56.20   Q 37.56 45.23 36.75 36.25   Q 35.29 20.16 23.19 10.06   Q 13.67 2.12 0.93 1.82   A 0.52 0.32 -7.2 0 1 0.53 1.64   Q 0.39 1.42 0.77 1.34   Q 4.23 0.61 7.75 0.21   Z"/>
        </svg>